<?xml version="1.0" encoding="UTF-8"?>
<svg width="200" height="200" viewBox="0 0 200 200" xmlns="http://www.w3.org/2000/svg">
    <path id="path1" stroke="none" d="M 175 166.666656 C 179.602371 166.666656 183.333328 170.397629 183.333328 175 C 183.333328 179.602371 179.602371 183.333344 175 183.333344 L 25 183.333344 C 20.397627 183.333344 16.666662 179.602371 16.666662 175 C 16.666662 170.397629 20.397627 166.666656 25 166.666656 L 175 166.666656 Z M 100 150 L 99.316666 149.966675 L 98.325005 149.833328 L 97.399994 149.583328 L 96.475006 149.21666 L 95.65834 148.78334 L 95.041672 148.366669 L 94.10833 147.558334 L 60.775005 114.224991 C 57.673241 111.112701 57.520996 106.12677 60.427071 102.831017 C 63.333153 99.535255 68.298927 99.06221 71.774994 101.750008 L 72.558334 102.441666 L 91.666664 121.541664 L 91.666664 25 C 91.666664 20.397629 95.397629 16.666672 100 16.666672 C 104.602371 16.666672 108.333328 20.397629 108.333328 25 L 108.333328 121.541664 L 127.441666 102.441666 C 130.410568 99.473038 135.124283 99.176643 138.441666 101.750008 L 139.225006 102.441666 C 142.193634 105.410576 142.490021 110.12429 139.916672 113.441673 L 139.225006 114.224991 L 105.89167 147.558334 L 105.525002 147.908325 L 104.958328 148.366669 L 104.041664 148.958344 L 103.525002 149.21666 L 102.849998 149.5 L 102.216667 149.699997 L 100.974998 149.949997 L 100 150 Z"/>
</svg>
