<?xml version="1.0" standalone="no"?><!DOCTYPE svg PUBLIC "-//W3C//DTD SVG 1.1//EN" "http://www.w3.org/Graphics/SVG/1.1/DTD/svg11.dtd"><svg class="icon" width="200px" height="200.00px" viewBox="0 0 1024 1024" version="1.1" xmlns="http://www.w3.org/2000/svg"><path d="M170.666667 896a42.666667 42.666667 0 0 1-85.333334 0V128a42.666667 42.666667 0 1 1 85.333334 0v768z m85.333333-384l0.170667-3.498667 0.682666-5.077333 1.28-4.736 1.877334-4.736 2.218666-4.181333 2.133334-3.157334 4.138666-4.778666 170.666667-170.666667a42.666667 42.666667 0 0 1 63.872 56.32l-3.541333 4.010667L401.706667 469.333333H896a42.666667 42.666667 0 0 1 0 85.333334H401.706667l97.792 97.834666a42.666667 42.666667 0 0 1 3.541333 56.32l-3.541333 4.010667a42.666667 42.666667 0 0 1-56.32 3.541333l-4.010667-3.541333-170.666667-170.666667-1.792-1.877333-2.346666-2.901333-3.029334-4.693334-1.322666-2.645333-1.450667-3.456-1.024-3.242667-1.28-6.357333L256 512z" /></svg>