<?xml version="1.0" encoding="UTF-8"?>
<!-- Generated by Pixelmator Pro 3.5.5 -->
<svg width="200" height="200" viewBox="0 0 200 200" xmlns="http://www.w3.org/2000/svg">
    <path id="path1" stroke="none" d="M 99.399124 124.500778 C 101.011848 124.500778 102.352409 125.057426 103.748161 126.070892 L 104.810562 126.915039 L 130.663071 150.659973 C 131.830658 151.818176 132.573273 153.26738 132.573273 155.005066 C 132.573273 158.384964 129.6026 160.991592 125.890137 160.991592 C 124.277428 160.991592 122.868179 160.559174 121.772064 159.793365 L 121.010117 159.15741 L 116.161232 154.240814 L 105.552116 143.040833 L 106.294731 161.482422 L 106.294731 188.819916 C 106.294731 192.392578 103.430496 195 99.399345 195 C 95.867195 195 93.193123 192.88829 92.694321 189.86171 L 92.609978 188.819916 L 92.609978 161.483398 L 93.246353 143.233398 L 82.744553 154.241592 L 77.86174 159.157623 C 76.588989 160.220123 74.997299 160.991592 72.98172 160.991592 C 69.269272 160.991592 66.404839 158.384964 66.404839 155.005066 C 66.404839 153.615036 66.812195 152.409958 67.572418 151.389847 L 68.207726 150.659973 L 94.201447 126.915039 C 96.005402 125.273239 97.488922 124.500977 99.399345 124.500977 Z M 175.690552 96.435745 C 177.585266 96.435745 179.40239 97.120804 180.741989 98.340172 C 182.081589 99.559532 182.833908 101.213287 182.833405 102.937492 C 182.833908 104.661713 182.081589 106.315468 180.741989 107.534828 C 179.40239 108.754196 177.585266 109.439255 175.690552 109.439255 L 23.309458 109.439255 C 21.414719 109.439255 19.597614 108.754196 18.258015 107.534828 C 16.918411 106.315468 16.16609 104.661713 16.166601 102.937492 C 16.16609 101.213287 16.918411 99.559532 18.258015 98.340172 C 19.597614 97.120804 21.414719 96.435745 23.309458 96.435745 L 175.690552 96.435745 Z M 99.399124 10.833405 C 103.430298 10.833405 106.294731 13.440826 106.294731 17.013275 L 106.294731 44.241791 L 105.552979 62.68515 L 116.161018 51.483978 L 121.009911 46.567581 C 122.176422 45.40918 123.873489 44.733398 125.889931 44.733398 C 129.602371 44.733398 132.573059 47.340042 132.573059 50.719147 C 132.573059 52.457428 131.830444 53.905853 130.662857 55.06485 L 104.809486 78.810158 C 103.005539 80.35508 101.414917 81.22422 99.399345 81.22422 C 97.489998 81.22422 96.004547 80.45195 94.201447 78.810158 L 68.207726 55.065231 C 67.041214 53.907028 66.404839 52.457809 66.404839 50.719528 C 66.404839 47.34024 69.269272 44.733597 72.98172 44.733597 C 74.997086 44.733597 76.589638 45.505081 77.862602 46.567581 L 82.743904 51.484375 L 93.247429 62.491791 L 92.609978 44.241791 L 92.609978 17.013275 C 92.609978 13.44101 95.474632 10.833405 99.399559 10.833405 Z"/>
</svg>
