<?xml version="1.0" standalone="no"?><!DOCTYPE svg PUBLIC "-//W3C//DTD SVG 1.1//EN" "http://www.w3.org/Graphics/SVG/1.1/DTD/svg11.dtd"><svg t="1723624854114" class="icon" viewBox="0 0 1024 1024" version="1.1" xmlns="http://www.w3.org/2000/svg" p-id="7927" xmlns:xlink="http://www.w3.org/1999/xlink" width="200" height="200"><path d="M976.372093 17.860465H346.493023c-16.669767 0-29.767442 13.097674-29.767442 29.767442v263.144186H53.581395c-16.669767 0-29.767442 13.097674-29.767442 29.767442v629.87907C23.813953 987.088372 36.911628 1000.186047 53.581395 1000.186047h629.87907c16.669767 0 29.767442-13.097674 29.767442-29.767442V707.274419H976.372093c16.669767 0 29.767442-13.097674 29.767442-29.767442V47.627907c0-16.669767-13.097674-29.767442-29.767442-29.767442zM653.693023 940.651163H83.348837V370.306977h233.376744v307.2c0 16.669767 13.097674 29.767442 29.767442 29.767442h307.2V940.651163z m292.911628-292.911628H376.260465V77.395349h570.344186v570.344186z"  p-id="7928"></path><path d="M488.186047 392.930233h142.88372v142.88372c0 16.669767 13.097674 29.767442 29.767442 29.767442S690.604651 552.483721 690.604651 535.813953V392.930233h142.883721c16.669767 0 29.767442-13.097674 29.767442-29.767442S850.15814 333.395349 833.488372 333.395349H690.604651V190.511628c0-16.669767-13.097674-29.767442-29.767442-29.767442S631.069767 173.84186 631.069767 190.511628v142.883721H488.186047c-16.669767 0-29.767442 13.097674-29.767442 29.767442S471.516279 392.930233 488.186047 392.930233z" p-id="7929"></path></svg>