<?xml version="1.0" standalone="no"?><!DOCTYPE svg PUBLIC "-//W3C//DTD SVG 1.1//EN" "http://www.w3.org/Graphics/SVG/1.1/DTD/svg11.dtd"><svg t="1725936903711" class="icon" viewBox="0 0 1024 1024" version="1.1" xmlns="http://www.w3.org/2000/svg" p-id="6015" xmlns:xlink="http://www.w3.org/1999/xlink" width="200" height="200"><path d="M364.036124 0.023891H46.4127a48.720745 48.720745 0 0 0-32.807578 13.566723A47.739505 47.739505 0 0 0 0.0384 48.744637v315.276978a46.459625 46.459625 0 0 0 46.3743 46.374299h2.346445a46.459625 46.459625 0 0 0 46.3743-46.374299v-268.774691h268.774691A46.928914 46.928914 0 0 0 410.282435 46.526179 46.459625 46.459625 0 0 0 364.036124 0.023891z m611.099788 0h-315.276978a46.928914 46.928914 0 0 0-46.3743 48.720746 46.459625 46.459625 0 0 0 46.3743 46.374299h268.77469v268.774691a46.459625 46.459625 0 0 0 46.3743 46.374299h2.346445a46.459625 46.459625 0 0 0 46.3743-46.374299V46.398191A46.928914 46.928914 0 0 0 975.093249 0.023891zM410.410423 975.07874a46.459625 46.459625 0 0 0-46.374299-46.3743h-268.774691v-268.77469a46.928914 46.928914 0 0 0-48.720745-46.3743 46.3743 46.3743 0 0 0-46.3743 46.3743v317.623424a45.905011 45.905011 0 0 0 23.421794 39.932239 47.696842 47.696842 0 0 0 25.59759 6.399398h315.276978a46.928914 46.928914 0 0 0 45.905011-48.806071z m600.732765-28.49865l-168.176164-168.176163L1011.143188 610.099776a40.956143 40.956143 0 0 0 12.073529-31.058409 50.171276 50.171276 0 0 0-15.14524-33.532842 43.47324 43.47324 0 0 0-61.391552 0l-168.176164 168.432139-168.389476-168.304151a43.089276 43.089276 0 0 0-30.717108-12.798795 46.203649 46.203649 0 0 0-33.788818 15.657192 43.47324 43.47324 0 0 0 0 61.391552l168.176163 168.304152-168.176163 168.304151a42.662649 42.662649 0 0 0-12.798795 30.845095 46.203649 46.203649 0 0 0 15.657192 33.788819 43.771878 43.771878 0 0 0 61.647529 0l168.176163-168.304152 168.176163 168.176164a43.345252 43.345252 0 0 0 30.845096 12.798795 46.203649 46.203649 0 0 0 33.788818-15.657193 43.302589 43.302589 0 0 0 12.798795-30.717107 44.198505 44.198505 0 0 0-12.756132-30.802433z" p-id="6016" ></path></svg>