<?xml version="1.0" standalone="no"?><!DOCTYPE svg PUBLIC "-//W3C//DTD SVG 1.1//EN" "http://www.w3.org/Graphics/SVG/1.1/DTD/svg11.dtd"><svg t="1724233839523" class="icon" viewBox="0 0 1025 1024" version="1.1" xmlns="http://www.w3.org/2000/svg" p-id="4288" xmlns:xlink="http://www.w3.org/1999/xlink" width="200.1953125" height="200"><path d="M419.632645 673.166987a68.790787 68.790787 0 0 1-57.980806-106.134357l81.566219-129.71977 8.844529-11.792706L857.92823 20.637236a68.790787 68.790787 0 0 1 49.136277-20.637236 68.790787 68.790787 0 0 1 49.136276 20.637236l49.136277 49.136276a68.790787 68.790787 0 0 1 0 98.272553L599.471417 572.928983l-9.827256 9.827255-133.650672 77.635317a68.790787 68.790787 0 0 1-36.360844 12.775432z" p-id="4289"></path><path d="M758.672952 1024H217.191186A217.182342 217.182342 0 0 1 0.008845 807.800384v-540.49904A217.182342 217.182342 0 0 1 217.191186 48.153551h304.644914a68.790787 68.790787 0 0 1 0 137.581574h-304.644914a79.600768 79.600768 0 0 0-78.618042 78.618042v543.447217a79.600768 79.600768 0 0 0 78.618042 78.618042h541.481766a79.600768 79.600768 0 0 0 78.618042-78.618042V502.172745a68.790787 68.790787 0 1 1 137.581574 0v305.627639a217.182342 217.182342 0 0 1-216.199616 216.199616z" p-id="4290"></path></svg>