<?xml version="1.0" standalone="no"?><!DOCTYPE svg PUBLIC "-//W3C//DTD SVG 1.1//EN" "http://www.w3.org/Graphics/SVG/1.1/DTD/svg11.dtd"><svg t="1723941407077" class="icon" viewBox="0 0 1024 1024" version="1.1" xmlns="http://www.w3.org/2000/svg" p-id="5133" xmlns:xlink="http://www.w3.org/1999/xlink" width="200" height="200"><path d="M290.1 662.6h-50c0-58.3 11.4-114.9 34-168.2 21.8-51.4 52.9-97.6 92.6-137.3s85.9-70.8 137.3-92.6c53.3-22.5 109.9-34 168.2-34v50c-210.7 0.1-382.1 171.4-382.1 382.1z" p-id="5134"></path><path d="M878 450v427.9l-0.1 0.1H148.1l-0.1-0.1V148.1l0.1-0.1h364V98H148c-27.5 0-50 22.5-50 50v730c0 27.5 22.5 50 50 50h730c27.5 0 50-22.5 50-50V450h-50z" p-id="5135"></path><path d="M672.1 62.9v217.7h50V156.4L869.9 255l-147.8 98.7V320h-50v127.2L960 255z" p-id="5136"></path></svg>