<?xml version="1.0" standalone="no"?><!DOCTYPE svg PUBLIC "-//W3C//DTD SVG 1.1//EN" "http://www.w3.org/Graphics/SVG/1.1/DTD/svg11.dtd"><svg t="1723616841806" class="icon" viewBox="0 0 1024 1024" version="1.1" xmlns="http://www.w3.org/2000/svg" p-id="19011" xmlns:xlink="http://www.w3.org/1999/xlink" width="200" height="200"><path d="M213.333333 352.711111c-2.844444 0-8.533333-2.844444-11.377777-5.688889 0 0-2.844444-5.688889-2.844445-8.533333V213.333333c0-8.533333 5.688889-14.222222 14.222222-14.222222h125.155556c8.533333 0 14.222222 5.688889 14.222222 14.222222s-5.688889 14.222222-14.222222 14.222223H230.4v108.088888c0 2.844444-2.844444 8.533333-5.688889 11.377778s-5.688889 5.688889-11.377778 5.688889zM338.488889 824.888889H213.333333c-8.533333 0-14.222222-5.688889-14.222222-14.222222v-125.155556c0-8.533333 5.688889-14.222222 14.222222-14.222222s14.222222 5.688889 14.222223 14.222222v108.088889h108.088888c8.533333 0 14.222222 5.688889 14.222223 14.222222 2.844444 8.533333-2.844444 17.066667-11.377778 17.066667z m472.177778 0h-125.155556c-8.533333 0-14.222222-5.688889-14.222222-14.222222s5.688889-14.222222 14.222222-14.222223h108.088889v-108.088888c0-8.533333 5.688889-14.222222 14.222222-14.222223s14.222222 5.688889 14.222222 14.222223v125.155555c2.844444 2.844444-5.688889 11.377778-11.377777 11.377778z m0-472.177778c-2.844444 0-8.533333-2.844444-11.377778-5.688889s-5.688889-5.688889-5.688889-11.377778V227.555556h-108.088889c-8.533333 0-14.222222-5.688889-14.222222-14.222223s5.688889-14.222222 14.222222-14.222222h125.155556c8.533333 0 14.222222 5.688889 14.222222 14.222222v125.155556c0 2.844444-2.844444 8.533333-5.688889 11.377778s-5.688889 2.844444-8.533333 2.844444zM512 668.444444c-85.333333 0-156.444444-71.111111-156.444444-156.444444s71.111111-156.444444 156.444444-156.444444 156.444444 71.111111 156.444444 156.444444-71.111111 156.444444-156.444444 156.444444z m0-284.444444c-71.111111 0-128 56.888889-128 128s56.888889 128 128 128 128-56.888889 128-128-56.888889-128-128-128z" p-id="19012"></path><path d="M696.888889 526.222222h-369.777778c-5.688889 0-11.377778-2.844444-14.222222-8.533333-2.844444-5.688889-2.844444-11.377778 0-14.222222 2.844444-5.688889 8.533333-8.533333 14.222222-8.533334h372.622222c8.533333 0 14.222222 5.688889 14.222223 14.222223s-8.533333 17.066667-17.066667 17.066666zM512 713.955556c-8.533333 0-14.222222-5.688889-14.222222-14.222223V327.111111c0-8.533333 5.688889-14.222222 14.222222-14.222222s14.222222 5.688889 14.222222 14.222222v372.622222c0 5.688889-5.688889 14.222222-14.222222 14.222223z" p-id="19013"></path></svg>