<?xml version="1.0" standalone="no"?><!DOCTYPE svg PUBLIC "-//W3C//DTD SVG 1.1//EN" "http://www.w3.org/Graphics/SVG/1.1/DTD/svg11.dtd"><svg t="1725958082447" class="icon" viewBox="0 0 1024 1024" version="1.1" xmlns="http://www.w3.org/2000/svg" p-id="7646" xmlns:xlink="http://www.w3.org/1999/xlink" width="200" height="200"><path d="M0 0h1024v1024H0z" fill-opacity=".01" p-id="7647"></path><path d="M906.688 126.976a48 48 0 0 1 3.84 62.528l-4.736 5.376-104.96 101.952a1013.12 1013.12 0 0 1 130.24 112.128c53.952 54.336 56.512 140.352 7.68 197.76l-7.68 8.32-17.92 17.728C775.872 765.568 642.176 832 512 832c-67.584 0-136.064-17.92-205.568-53.696l-117.76 114.56a48 48 0 0 1-71.68-63.488l4.8-5.312L222.08 726.4a1015.04 1015.04 0 0 1-129.152-111.36 146.304 146.304 0 0 1-7.68-197.76l7.68-8.32 17.92-17.728C248.128 258.432 381.824 192 512 192c67.2 0 135.36 17.728 204.416 53.12l122.368-119.04a48 48 0 0 1 67.84 0.896z m-208 269.44L626.944 466.304a123.584 123.584 0 0 1-163.584 159.296l-71.872 69.952a219.584 219.584 0 0 0 307.264-299.2zM512 292.416A219.584 219.584 0 0 0 324.608 626.56l72.064-70.08a123.584 123.584 0 0 1 162.88-158.592l72-70.144A218.56 218.56 0 0 0 512 292.48z" p-id="7648"></path></svg>