<?xml version="1.0" standalone="no"?><!DOCTYPE svg PUBLIC "-//W3C//DTD SVG 1.1//EN" "http://www.w3.org/Graphics/SVG/1.1/DTD/svg11.dtd"><svg t="1723628253125" class="icon" viewBox="0 0 1024 1024" version="1.1" xmlns="http://www.w3.org/2000/svg" p-id="11998" xmlns:xlink="http://www.w3.org/1999/xlink" width="200" height="200"><path d="M258.563 422.4V317.867C258.563 177.493 372.087 64 512.5 64s253.938 113.493 253.938 253.867v-14.934c0 16.427-13.444 29.867-29.875 29.867-16.432 0-29.875-13.44-29.875-29.867v14.934c0-107.52-86.638-194.134-194.188-194.134-107.55 0-194.188 86.614-194.188 194.134V422.4h463.063C830.669 422.4 871 462.72 871 512v358.4c0 49.28-40.331 89.6-89.625 89.6h-537.75C194.331 960 154 919.68 154 870.4V512c0-49.28 40.331-89.6 89.625-89.6h14.938z m-14.938 59.733c-16.431 0-29.875 13.44-29.875 29.867v358.4c0 16.427 13.444 29.867 29.875 29.867h537.75c16.431 0 29.875-13.44 29.875-29.867V512c0-16.427-13.444-29.867-29.875-29.867h-537.75z m259.174 306.633a24.39 24.39 0 0 1-17.246-7.14l-85.544-85.518c-9.397-9.544-9.338-24.879 0.134-34.349 9.472-9.47 24.811-9.532 34.359-0.138l68.297 68.282 121.173-121.159a24.394 24.394 0 0 1 40.806 10.926 24.378 24.378 0 0 1-6.31 23.552l-138.417 138.4a24.41 24.41 0 0 1-17.251 7.144h-0.001z" p-id="11999"></path></svg>