<?xml version="1.0" standalone="no"?><!DOCTYPE svg PUBLIC "-//W3C//DTD SVG 1.1//EN" "http://www.w3.org/Graphics/SVG/1.1/DTD/svg11.dtd"><svg t="1723616551750" class="icon" viewBox="0 0 1024 1024" version="1.1" xmlns="http://www.w3.org/2000/svg" p-id="11202" xmlns:xlink="http://www.w3.org/1999/xlink" width="200" height="200"><path d="M889.5 852.7l-220-219.9c45-53.4 72.1-122.3 72.1-197.5 0-169.4-137.8-307.3-307.3-307.3S127.1 265.8 127.1 435.3s137.8 307.3 307.3 307.3c76.1 0 145.7-27.8 199.4-73.8l219.8 219.8c4.9 5 11.4 7.4 17.9 7.4s13-2.5 17.9-7.4c10-9.9 10-26 0.1-35.9zM434.4 691.8c-141.4 0-256.5-115.1-256.5-256.5 0-141.5 115.1-256.5 256.5-256.5s256.5 115.1 256.5 256.5-115.1 256.5-256.5 256.5z" p-id="11203"></path><path d="M555 418.3H304.7c-14 0-25.4 11.4-25.4 25.4s11.4 25.4 25.4 25.4H555c14 0 25.4-11.4 25.4-25.4S569 418.3 555 418.3z" p-id="11204"></path></svg>